<svg xmlns="http://www.w3.org/2000/svg" viewBox="0 0 102.9 92.55" fill="currentColor">
  <path d="M102.9,92.55c-3.1,0-5.35-1.38-6.75-4.12-1.4-2.75-2.1-6.25-2.1-10.5s.9-10.07,2.7-17.48c-3.5-.3-9.45-1-17.85-2.1-13.9,17.2-25.45,29.15-34.65,35.85-7.9,5.9-16.1,8.85-24.6,8.85-5.4,0-10.03-1.35-13.88-4.05-3.85-2.7-5.77-6.7-5.77-12,0-1,.25-1.92.75-2.78.5-.85,1-1.07,1.5-.67.5.4.75,1.55.75,3.45,0,3.4,1.32,5.95,3.98,7.65,2.65,1.7,5.87,2.55,9.67,2.55,8.2,0,16.28-2.68,24.23-8.02,7.95-5.35,18.77-15.83,32.48-31.42-14.7-1.8-24.4-2.7-29.1-2.7-12.7,0-20.55,4.15-23.55,12.45-.4,1.1-.6,2.13-.6,3.07s.2,1.8.6,2.55c.4.75.47,1.35.23,1.8-.25.45-.68.65-1.28.6-.6-.05-1.1-.38-1.5-.98-1.1-1.9-1.65-3.75-1.65-5.55,0-6.2,1.12-10.77,3.38-13.73,2.25-2.95,4.88-4.82,7.88-5.62,3.6-1,7.8-1.5,12.6-1.5s16.9,1.9,36.3,5.7c5.4-6.2,13.6-16.17,24.6-29.92,11-13.75,16.5-20.72,16.5-20.92h.15c.1-.1.35-.25.75-.45,2.4-1.4,5-2.1,7.8-2.1,1,0,1.5.5,1.5,1.5,0,.1-.05.23-.15.38-.1.15-.2.35-.3.6-.1.25-.2.48-.3.67-9.6,15.9-17.05,33.8-22.35,53.7l-.45,1.05,3.75.15c.8.1,2.22.15,4.28.15s4.22-.47,6.52-1.43c2.3-.95,3.77-1.97,4.42-3.07.65-1.1,1.22-1.35,1.73-.75.5.6.55,1.25.15,1.95-1.1,2-3.05,3.45-5.85,4.35-2.4,1-4.78,1.5-7.12,1.5h-4.57l-4.05-.15c-1.9,8.7-2.85,15.63-2.85,20.77s1.4,7.73,4.2,7.73,6.9-2.15,12.6-6.45c5.7-4.3,11.05-9.85,16.05-16.65.3-.4.7-.5,1.2-.3.5.2.75.45.75.75s-.08.67-.23,1.12c-.15.45-.93,1.57-2.32,3.38-4.2,5.6-9.35,10.9-15.45,15.9-4.4,3.5-9.3,5.25-14.7,5.25ZM111.15,17.1c.1-.2.23-.47.38-.82.15-.35.27-.62.38-.83-12.5,17.1-22.55,30.3-30.15,39.6l15.75,2.55c2.8-10.9,7.35-24.4,13.65-40.5Z"></path>
</svg>
